<mxfile host="app.diagrams.net" agent="Mozilla/5.0 (Windows NT 10.0; Win64; x64) AppleWebKit/537.36 (KHTML, like Gecko) Chrome/129.0.0.0 Safari/537.36 Edg/129.0.0.0" version="24.7.16">
  <diagram name="Page-1" id="BS0ruefYCEXaYiE0RahJ">
    <mxGraphModel dx="1282" dy="531" grid="1" gridSize="10" guides="1" tooltips="1" connect="1" arrows="1" fold="1" page="1" pageScale="1" pageWidth="850" pageHeight="1100" math="0" shadow="0">
      <root>
        <mxCell id="0" />
        <mxCell id="1" parent="0" />
        <mxCell id="DTlkLU83praXuBq26BBd-1" value="" style="rounded=0;whiteSpace=wrap;html=1;" parent="1" vertex="1">
          <mxGeometry x="285" y="110" width="455" height="860" as="geometry" />
        </mxCell>
        <mxCell id="DTlkLU83praXuBq26BBd-2" value="Student Smart Printing Service" style="text;html=1;align=center;verticalAlign=middle;whiteSpace=wrap;rounded=0;" parent="1" vertex="1">
          <mxGeometry x="425" y="70" width="170" height="120" as="geometry" />
        </mxCell>
        <mxCell id="DTlkLU83praXuBq26BBd-4" value="Student" style="shape=umlActor;verticalLabelPosition=bottom;verticalAlign=top;html=1;outlineConnect=0;" parent="1" vertex="1">
          <mxGeometry x="190" y="720" width="30" height="60" as="geometry" />
        </mxCell>
        <mxCell id="DTlkLU83praXuBq26BBd-9" value="SPSO" style="shape=umlActor;verticalLabelPosition=bottom;verticalAlign=top;html=1;outlineConnect=0;" parent="1" vertex="1">
          <mxGeometry x="190" y="391" width="30" height="60" as="geometry" />
        </mxCell>
        <mxCell id="DTlkLU83praXuBq26BBd-10" value="&lt;div&gt;&amp;lt;&amp;lt;actor&amp;gt;&amp;gt;&lt;/div&gt;Printer" style="rounded=0;whiteSpace=wrap;html=1;" parent="1" vertex="1">
          <mxGeometry x="766" y="460" width="120" height="60" as="geometry" />
        </mxCell>
        <mxCell id="DTlkLU83praXuBq26BBd-11" value="&lt;div&gt;&amp;lt;&amp;lt;actor&amp;gt;&amp;gt;&lt;/div&gt;Online Payment System" style="rounded=0;whiteSpace=wrap;html=1;" parent="1" vertex="1">
          <mxGeometry x="766" y="740" width="120" height="60" as="geometry" />
        </mxCell>
        <mxCell id="DTlkLU83praXuBq26BBd-22" value="View All Printing Logs" style="ellipse;whiteSpace=wrap;html=1;" parent="1" vertex="1">
          <mxGeometry x="320" y="353" width="120" height="60" as="geometry" />
        </mxCell>
        <mxCell id="DTlkLU83praXuBq26BBd-26" value="View All Payment Logs" style="ellipse;whiteSpace=wrap;html=1;" parent="1" vertex="1">
          <mxGeometry x="320" y="282" width="120" height="60" as="geometry" />
        </mxCell>
        <mxCell id="DTlkLU83praXuBq26BBd-27" value="Manage Configurations" style="ellipse;whiteSpace=wrap;html=1;" parent="1" vertex="1">
          <mxGeometry x="320" y="206" width="120" height="60" as="geometry" />
        </mxCell>
        <mxCell id="DTlkLU83praXuBq26BBd-29" value="Print Documents" style="ellipse;whiteSpace=wrap;html=1;" parent="1" vertex="1">
          <mxGeometry x="320" y="669" width="120" height="60" as="geometry" />
        </mxCell>
        <mxCell id="DTlkLU83praXuBq26BBd-30" value="View Personal Printing Logs" style="ellipse;whiteSpace=wrap;html=1;" parent="1" vertex="1">
          <mxGeometry x="320" y="889" width="120" height="60" as="geometry" />
        </mxCell>
        <mxCell id="DTlkLU83praXuBq26BBd-32" value="Buy Additional Printing Pages" style="ellipse;whiteSpace=wrap;html=1;" parent="1" vertex="1">
          <mxGeometry x="320" y="739" width="120" height="60" as="geometry" />
        </mxCell>
        <mxCell id="DTlkLU83praXuBq26BBd-33" value="" style="endArrow=none;html=1;rounded=0;entryX=0;entryY=0.5;entryDx=0;entryDy=0;exitX=0.5;exitY=0.5;exitDx=0;exitDy=0;exitPerimeter=0;" parent="1" source="DTlkLU83praXuBq26BBd-4" target="DTlkLU83praXuBq26BBd-30" edge="1">
          <mxGeometry width="50" height="50" relative="1" as="geometry">
            <mxPoint x="210" y="550" as="sourcePoint" />
            <mxPoint x="330" y="660" as="targetPoint" />
          </mxGeometry>
        </mxCell>
        <mxCell id="DTlkLU83praXuBq26BBd-35" value="" style="endArrow=none;html=1;rounded=0;entryX=0;entryY=0.5;entryDx=0;entryDy=0;exitX=0.5;exitY=0.5;exitDx=0;exitDy=0;exitPerimeter=0;" parent="1" source="DTlkLU83praXuBq26BBd-4" target="DTlkLU83praXuBq26BBd-29" edge="1">
          <mxGeometry width="50" height="50" relative="1" as="geometry">
            <mxPoint x="215" y="560" as="sourcePoint" />
            <mxPoint x="330" y="590" as="targetPoint" />
          </mxGeometry>
        </mxCell>
        <mxCell id="DTlkLU83praXuBq26BBd-37" value="View Personal Payment Logs" style="ellipse;whiteSpace=wrap;html=1;" parent="1" vertex="1">
          <mxGeometry x="320" y="819" width="120" height="60" as="geometry" />
        </mxCell>
        <mxCell id="DTlkLU83praXuBq26BBd-38" value="" style="endArrow=none;html=1;rounded=0;entryX=0;entryY=0.5;entryDx=0;entryDy=0;exitX=0.5;exitY=0.5;exitDx=0;exitDy=0;exitPerimeter=0;" parent="1" source="DTlkLU83praXuBq26BBd-9" target="DTlkLU83praXuBq26BBd-27" edge="1">
          <mxGeometry width="50" height="50" relative="1" as="geometry">
            <mxPoint x="205" y="276" as="sourcePoint" />
            <mxPoint x="320" y="146" as="targetPoint" />
          </mxGeometry>
        </mxCell>
        <mxCell id="DTlkLU83praXuBq26BBd-39" value="" style="endArrow=none;html=1;rounded=0;entryX=0;entryY=0.5;entryDx=0;entryDy=0;exitX=0.5;exitY=0.5;exitDx=0;exitDy=0;exitPerimeter=0;" parent="1" source="DTlkLU83praXuBq26BBd-9" target="DTlkLU83praXuBq26BBd-26" edge="1">
          <mxGeometry width="50" height="50" relative="1" as="geometry">
            <mxPoint x="220" y="406" as="sourcePoint" />
            <mxPoint x="335" y="276" as="targetPoint" />
          </mxGeometry>
        </mxCell>
        <mxCell id="DTlkLU83praXuBq26BBd-40" value="" style="endArrow=none;html=1;rounded=0;entryX=0;entryY=0.5;entryDx=0;entryDy=0;exitX=0.5;exitY=0.5;exitDx=0;exitDy=0;exitPerimeter=0;" parent="1" source="DTlkLU83praXuBq26BBd-9" target="DTlkLU83praXuBq26BBd-22" edge="1">
          <mxGeometry width="50" height="50" relative="1" as="geometry">
            <mxPoint x="170" y="435" as="sourcePoint" />
            <mxPoint x="285" y="305" as="targetPoint" />
          </mxGeometry>
        </mxCell>
        <mxCell id="dk162a3Or_rVZO8Yr5cb-2" value="Manage Printers" style="ellipse;whiteSpace=wrap;html=1;" parent="1" vertex="1">
          <mxGeometry x="320" y="436" width="120" height="60" as="geometry" />
        </mxCell>
        <mxCell id="dk162a3Or_rVZO8Yr5cb-3" value="" style="endArrow=none;html=1;rounded=0;entryX=0;entryY=0.5;entryDx=0;entryDy=0;exitX=0.5;exitY=0.5;exitDx=0;exitDy=0;exitPerimeter=0;" parent="1" source="DTlkLU83praXuBq26BBd-9" target="dk162a3Or_rVZO8Yr5cb-2" edge="1">
          <mxGeometry width="50" height="50" relative="1" as="geometry">
            <mxPoint x="215" y="280" as="sourcePoint" />
            <mxPoint x="330" y="330" as="targetPoint" />
          </mxGeometry>
        </mxCell>
        <mxCell id="dk162a3Or_rVZO8Yr5cb-5" value="" style="endArrow=none;html=1;rounded=0;entryX=0;entryY=0.5;entryDx=0;entryDy=0;exitX=1;exitY=0.5;exitDx=0;exitDy=0;" parent="1" source="DTlkLU83praXuBq26BBd-32" target="DTlkLU83praXuBq26BBd-11" edge="1">
          <mxGeometry width="50" height="50" relative="1" as="geometry">
            <mxPoint x="215" y="560" as="sourcePoint" />
            <mxPoint x="330" y="653" as="targetPoint" />
          </mxGeometry>
        </mxCell>
        <mxCell id="dk162a3Or_rVZO8Yr5cb-7" value="Process Print Request" style="ellipse;whiteSpace=wrap;html=1;" parent="1" vertex="1">
          <mxGeometry x="560" y="391" width="120" height="60" as="geometry" />
        </mxCell>
        <mxCell id="dk162a3Or_rVZO8Yr5cb-8" value="Access User Info" style="ellipse;whiteSpace=wrap;html=1;" parent="1" vertex="1">
          <mxGeometry x="320" y="595" width="120" height="60" as="geometry" />
        </mxCell>
        <mxCell id="dk162a3Or_rVZO8Yr5cb-9" value="" style="endArrow=none;html=1;rounded=0;exitX=0.5;exitY=0.5;exitDx=0;exitDy=0;exitPerimeter=0;entryX=0;entryY=0.5;entryDx=0;entryDy=0;" parent="1" source="DTlkLU83praXuBq26BBd-9" target="dk162a3Or_rVZO8Yr5cb-8" edge="1">
          <mxGeometry width="50" height="50" relative="1" as="geometry">
            <mxPoint x="215" y="280" as="sourcePoint" />
            <mxPoint x="330" y="410" as="targetPoint" />
          </mxGeometry>
        </mxCell>
        <mxCell id="dk162a3Or_rVZO8Yr5cb-11" value="Send Notifications" style="ellipse;whiteSpace=wrap;html=1;" parent="1" vertex="1">
          <mxGeometry x="560" y="481" width="120" height="60" as="geometry" />
        </mxCell>
        <mxCell id="dk162a3Or_rVZO8Yr5cb-12" value="" style="endArrow=none;html=1;rounded=0;entryX=0;entryY=0.5;entryDx=0;entryDy=0;exitX=1;exitY=0.5;exitDx=0;exitDy=0;" parent="1" source="DTlkLU83praXuBq26BBd-29" target="DTlkLU83praXuBq26BBd-10" edge="1">
          <mxGeometry width="50" height="50" relative="1" as="geometry">
            <mxPoint x="425" y="597.5" as="sourcePoint" />
            <mxPoint x="751" y="202.5" as="targetPoint" />
          </mxGeometry>
        </mxCell>
        <mxCell id="dk162a3Or_rVZO8Yr5cb-16" value="" style="endArrow=none;html=1;rounded=0;exitX=1;exitY=0.5;exitDx=0;exitDy=0;entryX=0;entryY=0.5;entryDx=0;entryDy=0;" parent="1" source="dk162a3Or_rVZO8Yr5cb-7" target="DTlkLU83praXuBq26BBd-10" edge="1">
          <mxGeometry width="50" height="50" relative="1" as="geometry">
            <mxPoint x="725" y="676" as="sourcePoint" />
            <mxPoint x="776" y="596" as="targetPoint" />
          </mxGeometry>
        </mxCell>
        <mxCell id="dk162a3Or_rVZO8Yr5cb-18" value="" style="endArrow=none;html=1;rounded=0;entryX=0;entryY=0.5;entryDx=0;entryDy=0;exitX=1;exitY=0.5;exitDx=0;exitDy=0;" parent="1" source="dk162a3Or_rVZO8Yr5cb-11" target="DTlkLU83praXuBq26BBd-10" edge="1">
          <mxGeometry width="50" height="50" relative="1" as="geometry">
            <mxPoint x="690" y="230" as="sourcePoint" />
            <mxPoint x="776" y="256" as="targetPoint" />
          </mxGeometry>
        </mxCell>
        <mxCell id="dk162a3Or_rVZO8Yr5cb-19" value="&amp;lt;&amp;lt;actor&amp;gt;&amp;gt;&lt;br&gt;HCMUT_SSO" style="rounded=0;whiteSpace=wrap;html=1;" parent="1" vertex="1">
          <mxGeometry x="766" y="205" width="120" height="60" as="geometry" />
        </mxCell>
        <mxCell id="dk162a3Or_rVZO8Yr5cb-20" value="Authenticate" style="ellipse;whiteSpace=wrap;html=1;" parent="1" vertex="1">
          <mxGeometry x="560" y="190" width="120" height="60" as="geometry" />
        </mxCell>
        <mxCell id="dk162a3Or_rVZO8Yr5cb-24" value="" style="endArrow=none;html=1;rounded=0;entryX=0;entryY=0.5;entryDx=0;entryDy=0;exitX=1;exitY=0.5;exitDx=0;exitDy=0;" parent="1" source="dk162a3Or_rVZO8Yr5cb-20" target="dk162a3Or_rVZO8Yr5cb-19" edge="1">
          <mxGeometry width="50" height="50" relative="1" as="geometry">
            <mxPoint x="730" y="460" as="sourcePoint" />
            <mxPoint x="740" y="468" as="targetPoint" />
          </mxGeometry>
        </mxCell>
        <mxCell id="dk162a3Or_rVZO8Yr5cb-25" value="View Reports" style="ellipse;whiteSpace=wrap;html=1;" parent="1" vertex="1">
          <mxGeometry x="320" y="512" width="120" height="60" as="geometry" />
        </mxCell>
        <mxCell id="dk162a3Or_rVZO8Yr5cb-66" value="User" style="shape=umlActor;verticalLabelPosition=bottom;verticalAlign=top;html=1;outlineConnect=0;" parent="1" vertex="1">
          <mxGeometry x="190" y="130" width="30" height="60" as="geometry" />
        </mxCell>
        <mxCell id="dk162a3Or_rVZO8Yr5cb-68" value="" style="endArrow=none;html=1;rounded=0;entryX=0;entryY=0.5;entryDx=0;entryDy=0;exitX=0.5;exitY=0.5;exitDx=0;exitDy=0;exitPerimeter=0;" parent="1" source="dk162a3Or_rVZO8Yr5cb-66" target="dk162a3Or_rVZO8Yr5cb-20" edge="1">
          <mxGeometry width="50" height="50" relative="1" as="geometry">
            <mxPoint x="220" y="630" as="sourcePoint" />
            <mxPoint x="335" y="570" as="targetPoint" />
          </mxGeometry>
        </mxCell>
        <mxCell id="dk162a3Or_rVZO8Yr5cb-70" value="" style="endArrow=none;html=1;rounded=0;entryX=0.5;entryY=0.5;entryDx=0;entryDy=0;entryPerimeter=0;" parent="1" target="DTlkLU83praXuBq26BBd-9" edge="1">
          <mxGeometry width="50" height="50" relative="1" as="geometry">
            <mxPoint x="80" y="421" as="sourcePoint" />
            <mxPoint x="500" y="550" as="targetPoint" />
          </mxGeometry>
        </mxCell>
        <mxCell id="dk162a3Or_rVZO8Yr5cb-71" value="" style="endArrow=none;html=1;rounded=0;entryX=0.5;entryY=0.5;entryDx=0;entryDy=0;entryPerimeter=0;" parent="1" target="DTlkLU83praXuBq26BBd-4" edge="1">
          <mxGeometry width="50" height="50" relative="1" as="geometry">
            <mxPoint x="80" y="750" as="sourcePoint" />
            <mxPoint x="215" y="350" as="targetPoint" />
          </mxGeometry>
        </mxCell>
        <mxCell id="dk162a3Or_rVZO8Yr5cb-72" value="" style="endArrow=none;html=1;rounded=0;" parent="1" edge="1">
          <mxGeometry width="50" height="50" relative="1" as="geometry">
            <mxPoint x="80" y="160" as="sourcePoint" />
            <mxPoint x="80" y="750" as="targetPoint" />
          </mxGeometry>
        </mxCell>
        <mxCell id="dk162a3Or_rVZO8Yr5cb-73" value="" style="endArrow=classic;html=1;rounded=0;entryX=0.5;entryY=0.5;entryDx=0;entryDy=0;entryPerimeter=0;" parent="1" target="dk162a3Or_rVZO8Yr5cb-66" edge="1">
          <mxGeometry width="50" height="50" relative="1" as="geometry">
            <mxPoint x="80" y="160" as="sourcePoint" />
            <mxPoint x="500" y="550" as="targetPoint" />
          </mxGeometry>
        </mxCell>
        <mxCell id="dk162a3Or_rVZO8Yr5cb-74" value="" style="endArrow=none;html=1;rounded=0;entryX=0;entryY=0.5;entryDx=0;entryDy=0;" parent="1" target="DTlkLU83praXuBq26BBd-32" edge="1">
          <mxGeometry width="50" height="50" relative="1" as="geometry">
            <mxPoint x="210" y="750" as="sourcePoint" />
            <mxPoint x="330" y="880" as="targetPoint" />
          </mxGeometry>
        </mxCell>
        <mxCell id="dk162a3Or_rVZO8Yr5cb-75" value="" style="endArrow=none;html=1;rounded=0;entryX=0;entryY=0.5;entryDx=0;entryDy=0;exitX=0.5;exitY=0.5;exitDx=0;exitDy=0;exitPerimeter=0;" parent="1" source="DTlkLU83praXuBq26BBd-4" target="DTlkLU83praXuBq26BBd-37" edge="1">
          <mxGeometry width="50" height="50" relative="1" as="geometry">
            <mxPoint x="220" y="760" as="sourcePoint" />
            <mxPoint x="330" y="730" as="targetPoint" />
          </mxGeometry>
        </mxCell>
        <mxCell id="dk162a3Or_rVZO8Yr5cb-77" value="" style="endArrow=none;html=1;rounded=0;exitX=0.5;exitY=0.5;exitDx=0;exitDy=0;exitPerimeter=0;entryX=0;entryY=0.5;entryDx=0;entryDy=0;" parent="1" source="DTlkLU83praXuBq26BBd-9" target="dk162a3Or_rVZO8Yr5cb-25" edge="1">
          <mxGeometry width="50" height="50" relative="1" as="geometry">
            <mxPoint x="215" y="431" as="sourcePoint" />
            <mxPoint x="330" y="635" as="targetPoint" />
          </mxGeometry>
        </mxCell>
      </root>
    </mxGraphModel>
  </diagram>
</mxfile>
